<svg xmlns="http://www.w3.org/2000/svg" viewBox="0 0 204.7 40" width="205" height="40" role="img" aria-label="Abdeen Labs"><!-- Generated by scripts/render-assets.ts — a render of the live components. Do not hand-edit. --><path fill="#F1EEE3" d="M10.81 1H39V39H1V10.81Z"/><path fill="#CE2020" fill-rule="evenodd" d="M10.4 0H40V40H0V10.4ZM10.81 1H39V39H1V10.81Z"/><g fill="#CE2020" transform="translate(5.483 23.599) scale(0.01455)"><path d="M348.00 -245.00V-242.00Q337.00 -232.00 325.00 -223.00Q313.00 -214.00 299.00 -206.00Q270.00 -189.00 231.50 -175.50Q193.00 -162.00 148.00 -162.00Q135.00 -162.00 121.50 -163.00Q108.00 -164.00 92.00 -167.00Q49.00 -187.00 49.00 -219.00Q49.00 -227.00 51.50 -234.00Q54.00 -241.00 56.00 -248.00L55.00 -247.00Q66.00 -276.00 77.50 -304.00Q89.00 -332.00 102.00 -358.00L163.00 -318.00Q175.00 -311.00 180.00 -322.00Q196.00 -350.00 211.00 -377.50Q226.00 -405.00 242.00 -433.00Q245.00 -438.00 243.50 -442.50Q242.00 -447.00 239.00 -449.00L160.00 -501.00H159.00L145.00 -509.00Q141.00 -512.00 136.00 -510.50Q131.00 -509.00 129.00 -505.00L115.00 -480.00Q88.00 -433.00 59.50 -376.00Q31.00 -319.00 14.00 -272.00Q-9.00 -206.00 -9.00 -161.00Q-9.00 -159.00 -9.00 -157.50Q-9.00 -156.00 -9.00 -153.00Q-9.00 -151.00 -8.50 -149.50Q-8.00 -148.00 -8.00 -146.00Q-3.00 -101.00 14.50 -66.00Q32.00 -31.00 64.00 -15.00V-16.00Q80.00 -9.00 96.50 -4.50Q113.00 0.00 130.00 0.00Q149.00 0.00 169.00 -4.50Q189.00 -9.00 211.00 -16.00Q297.00 -48.00 352.00 -127.00Q366.00 -147.00 377.00 -169.00Q388.00 -191.00 397.00 -213.00Q411.00 -247.00 420.50 -284.00Q430.00 -321.00 430.00 -366.00Q430.00 -434.00 398.00 -503.00Q395.00 -511.00 387.50 -511.00Q380.00 -511.00 377.00 -503.00L322.00 -378.00Q331.00 -347.00 339.50 -316.00Q348.00 -285.00 348.00 -245.00Z M616.00 -64.00 673.00 -177.00Q678.00 -185.00 673.00 -190.50Q668.00 -196.00 661.00 -194.00Q616.00 -185.00 570.50 -176.50Q525.00 -168.00 478.00 -160.00Q476.00 -159.00 473.00 -157.50Q470.00 -156.00 469.00 -154.00L413.00 -40.00Q409.00 -33.00 413.50 -27.50Q418.00 -22.00 425.00 -23.00Q471.00 -31.00 516.50 -40.00Q562.00 -49.00 608.00 -57.00Q614.00 -60.00 616.00 -64.00Z M660.00 -483.00Q650.00 -457.00 633.50 -436.50Q617.00 -416.00 593.00 -406.00Q581.00 -402.00 563.00 -398.50Q545.00 -395.00 520.00 -392.00Q495.00 -389.00 465.00 -386.50Q435.00 -384.00 398.00 -382.00Q388.00 -380.00 386.00 -372.00L372.00 -242.00Q371.00 -237.00 375.00 -232.50Q379.00 -228.00 384.00 -229.00Q527.00 -240.00 584.00 -272.00H583.00Q632.00 -300.00 659.00 -368.00Q670.00 -394.00 677.50 -420.50Q685.00 -447.00 686.00 -478.00Q686.00 -486.00 675.00 -489.50Q664.00 -493.00 660.00 -483.00Z M1058.00 -182.00Q1046.00 -182.00 1037.00 -173.00Q1020.00 -158.00 996.00 -153.00Q963.00 -148.00 924.00 -143.00Q885.00 -138.00 850.00 -136.00Q813.00 -134.00 774.50 -128.00Q736.00 -122.00 704.00 -114.00Q697.00 -112.00 691.50 -107.50Q686.00 -103.00 686.00 -95.00Q686.00 -88.00 692.00 -82.00Q698.00 -77.00 717.50 -67.00Q737.00 -57.00 768.00 -43.00Q804.00 -28.00 839.00 -14.00Q874.00 0.00 917.00 0.00Q938.00 0.00 952.50 -4.50Q967.00 -9.00 981.00 -19.00Q998.00 -31.00 1011.00 -49.50Q1024.00 -68.00 1037.50 -87.50Q1051.00 -107.00 1067.00 -119.00Q1086.00 -127.00 1086.00 -154.00Q1086.00 -165.00 1079.00 -173.50Q1072.00 -182.00 1058.00 -182.00Z M1286.00 74.00 1220.00 11.00Q1216.00 7.00 1210.50 8.00Q1205.00 9.00 1202.00 13.00Q1183.00 38.00 1163.50 62.00Q1144.00 86.00 1124.00 111.00Q1118.00 119.00 1125.00 126.00L1192.00 189.00Q1196.00 193.00 1201.00 192.50Q1206.00 192.00 1209.00 188.00Q1219.00 176.00 1223.50 169.50Q1228.00 163.00 1233.00 157.00Q1238.00 151.00 1248.00 139.00Q1258.00 127.00 1268.00 115.00Q1278.00 103.00 1288.00 90.00Q1293.00 81.00 1286.00 74.00Z M1378.00 -321.00Q1374.00 -321.00 1370.50 -317.50Q1367.00 -314.00 1365.00 -310.00Q1344.00 -253.00 1264.00 -223.00Q1212.00 -202.00 1166.00 -202.00Q1140.00 -202.00 1119.00 -208.00Q1107.00 -210.00 1100.50 -224.00Q1094.00 -238.00 1094.00 -253.00Q1094.00 -256.00 1094.50 -258.50Q1095.00 -261.00 1096.00 -265.00Q1096.00 -273.00 1094.50 -277.00Q1093.00 -281.00 1084.00 -281.00Q1076.00 -281.00 1072.00 -274.00V-275.00Q1039.00 -231.00 1026.00 -165.00Q1022.00 -153.00 1022.00 -137.00Q1022.00 -87.00 1067.00 -64.00Q1099.00 -48.00 1136.00 -48.00Q1181.00 -48.00 1215.00 -63.50Q1249.00 -79.00 1277.00 -98.00Q1302.00 -116.00 1321.00 -138.50Q1340.00 -161.00 1356.00 -187.00Q1388.00 -239.00 1390.00 -304.00Q1390.00 -311.00 1387.00 -316.00Q1384.00 -321.00 1378.00 -321.00Z M1465.00 -565.00 1504.00 -11.00Q1504.00 -1.00 1513.00 0.00Q1522.00 1.00 1526.00 -6.00L1587.00 -124.00L1550.00 -677.00Q1549.00 -685.00 1540.50 -687.00Q1532.00 -689.00 1528.00 -681.00Z M1991.00 -270.00Q1990.00 -270.00 1989.00 -270.00Q1988.00 -270.00 1986.00 -270.00Q1985.00 -270.00 1982.00 -267.00Q1974.00 -264.00 1965.50 -260.50Q1957.00 -257.00 1949.00 -253.00Q1927.00 -243.00 1904.50 -233.00Q1882.00 -223.00 1850.00 -221.00Q1832.00 -237.00 1818.00 -258.00Q1804.00 -279.00 1796.00 -305.00Q1817.00 -303.00 1838.00 -298.00Q1859.00 -293.00 1880.00 -287.00Q1890.00 -284.00 1894.00 -294.00L1935.00 -419.00Q1937.00 -425.00 1934.00 -429.50Q1931.00 -434.00 1926.00 -435.00L1910.00 -439.00L1911.00 -438.00Q1891.00 -443.00 1872.00 -447.00Q1853.00 -451.00 1830.00 -452.00Q1793.00 -452.00 1764.00 -417.00Q1740.00 -387.00 1723.00 -342.00Q1706.00 -297.00 1705.00 -246.00Q1704.00 -243.00 1704.00 -239.00Q1704.00 -221.00 1707.50 -206.00Q1711.00 -191.00 1716.00 -178.00Q1675.00 -168.00 1632.00 -162.50Q1589.00 -157.00 1537.00 -149.00Q1529.00 -147.00 1527.00 -139.00L1504.00 -14.00Q1503.00 -7.00 1507.00 -3.00Q1511.00 1.00 1518.00 0.00Q1572.00 -11.00 1625.00 -23.00Q1678.00 -35.00 1732.00 -48.00Q1793.00 -62.00 1847.00 -82.50Q1901.00 -103.00 1950.00 -130.00L1956.00 -136.00L1963.00 -151.00Q1972.00 -171.00 1983.00 -194.50Q1994.00 -218.00 2001.00 -239.00Q2005.00 -248.00 2005.00 -254.00Q2005.00 -270.00 1991.00 -270.00Z"/></g><rect x="52.0" y="0" width="1" height="40" fill="#CBC5B4"/><g fill="#0B0A08" transform="translate(64.622 25.680) scale(0.01600)"><path d="M23.60 0.00 232.40 -710.00H367.60L576.40 0.00H467.20L300.00 -600.80L132.80 0.00ZM140.00 -185.00 172.00 -282.40H428.00L460.00 -185.00Z M902.80 0.00V-710.00H1108.80Q1226.40 -710.00 1287.20 -659.20Q1348.00 -608.40 1348.00 -517.20Q1348.00 -473.40 1327.80 -438.70Q1307.60 -404.00 1269.40 -383.70Q1231.20 -363.40 1178.00 -362.00V-368.40Q1242.80 -367.60 1287.50 -346.10Q1332.20 -324.60 1355.10 -286.40Q1378.00 -248.20 1378.00 -196.80Q1378.00 -103.40 1313.50 -51.70Q1249.00 0.00 1132.80 0.00ZM1007.60 -98.00 1133.60 -98.20Q1202.80 -98.40 1236.00 -125.70Q1269.20 -153.00 1269.20 -202.00Q1269.20 -254.00 1234.80 -283.10Q1200.40 -312.20 1133.60 -312.20H1007.60ZM1007.60 -409.00H1111.20Q1177.40 -409.00 1208.30 -435.50Q1239.20 -462.00 1239.20 -510.40Q1239.20 -559.40 1208.30 -585.70Q1177.40 -612.00 1111.20 -612.00H1007.60Z M1722.80 0.00V-710.00H1895.60Q1990.20 -710.00 2059.50 -668.60Q2128.80 -627.20 2166.40 -547.70Q2204.00 -468.20 2204.00 -354.20Q2204.00 -240.20 2166.40 -161.20Q2128.80 -82.20 2059.50 -41.10Q1990.20 0.00 1895.60 0.00ZM1827.60 -98.80H1892.80Q1989.60 -98.80 2042.40 -162.60Q2095.20 -226.40 2095.20 -354.20Q2095.20 -482.00 2042.40 -546.60Q1989.60 -611.20 1892.80 -611.20H1827.60Z M2548.00 0.00V-710.00H2984.00V-611.20H2652.80V-404.20H2972.00V-307.80H2652.80V-98.80H2992.00V0.00Z M3368.00 0.00V-710.00H3804.00V-611.20H3472.80V-404.20H3792.00V-307.80H3472.80V-98.80H3812.00V0.00Z M4168.00 0.00V-710.00H4295.60L4546.80 -106.80L4529.20 -103.20V-710.00H4632.00V0.00H4504.40L4253.20 -603.20L4270.80 -607.60V0.00Z M5838.00 0.00V-710.00H5942.80V-40.20L5879.20 -98.80H6282.00V0.00Z M6583.60 0.00 6792.40 -710.00H6927.60L7136.40 0.00H7027.20L6860.00 -600.80L6692.80 0.00ZM6700.00 -185.00 6732.00 -282.40H6988.00L7020.00 -185.00Z M7462.80 0.00V-710.00H7668.80Q7786.40 -710.00 7847.20 -659.20Q7908.00 -608.40 7908.00 -517.20Q7908.00 -473.40 7887.80 -438.70Q7867.60 -404.00 7829.40 -383.70Q7791.20 -363.40 7738.00 -362.00V-368.40Q7802.80 -367.60 7847.50 -346.10Q7892.20 -324.60 7915.10 -286.40Q7938.00 -248.20 7938.00 -196.80Q7938.00 -103.40 7873.50 -51.70Q7809.00 0.00 7692.80 0.00ZM7567.60 -98.00 7693.60 -98.20Q7762.80 -98.40 7796.00 -125.70Q7829.20 -153.00 7829.20 -202.00Q7829.20 -254.00 7794.80 -283.10Q7760.40 -312.20 7693.60 -312.20H7567.60ZM7567.60 -409.00H7671.20Q7737.40 -409.00 7768.30 -435.50Q7799.20 -462.00 7799.20 -510.40Q7799.20 -559.40 7768.30 -585.70Q7737.40 -612.00 7671.20 -612.00H7567.60Z M8509.20 16.00Q8432.40 16.00 8374.70 -15.00Q8317.00 -46.00 8283.10 -101.40Q8249.20 -156.80 8243.20 -231.40L8350.80 -237.80Q8357.60 -187.20 8378.90 -152.30Q8400.20 -117.40 8434.00 -99.70Q8467.80 -82.00 8513.00 -82.00Q8557.00 -82.00 8587.20 -93.30Q8617.40 -104.60 8633.10 -126.80Q8648.80 -149.00 8648.80 -180.80Q8648.80 -212.60 8634.10 -235.60Q8619.40 -258.60 8580.20 -278.40Q8541.00 -298.20 8466.00 -318.80Q8393.00 -339.20 8347.20 -364.60Q8301.40 -390.00 8280.30 -427.30Q8259.20 -464.60 8259.20 -519.60Q8259.20 -581.40 8287.70 -627.90Q8316.20 -674.40 8369.80 -700.20Q8423.40 -726.00 8498.00 -726.00Q8572.00 -726.00 8624.60 -697.00Q8677.20 -668.00 8707.70 -616.30Q8738.20 -564.60 8745.40 -496.00L8637.40 -489.80Q8631.80 -530.80 8614.40 -562.00Q8597.00 -593.20 8567.20 -610.60Q8537.40 -628.00 8494.60 -628.00Q8436.20 -628.00 8401.70 -599.80Q8367.20 -571.60 8367.20 -525.20Q8367.20 -494.60 8381.10 -474.30Q8395.00 -454.00 8430.10 -438.30Q8465.20 -422.60 8528.40 -404.80Q8613.20 -381.60 8663.20 -351.50Q8713.20 -321.40 8735.00 -280.30Q8756.80 -239.20 8756.80 -181.20Q8756.80 -122.60 8726.00 -77.90Q8695.20 -33.20 8639.70 -8.60Q8584.20 16.00 8509.20 16.00Z"/></g></svg>